# xmcd CD database file
#
# Track frame offsets:
#	150
#	14118
#	34198
#	65353
#	99273
#	141775
#	167606
#	170180
#	186547
#	227694
#
# Disc length: 3480 seconds
#
# Revision: 0
# Processed by: cddbd v1.5.2PL0 Copyright (c) Steve Scherf et al.
# Submitted via: CDex 1.70beta2
#
DISCID=8a0d960a
DTITLE=NHÖP Trio - Live
DYEAR=2007
DGENRE=Jazz
TTITLE0=The Back Piece
TTITLE1=Memories
TTITLE2=The Song Is You
TTITLE3=Lines
TTITLE4=A Nightingale San In Berkley Square
TTITLE5=You And The Night And The Music
TTITLE6=My Little Suede Shoes
TTITLE7=NHÖP Presentation
TTITLE8=Jeg Gik Mig Ud En Sommerdag
TTITLE9=(Our) Love Is Here To Stay
EXTD=YEAR: 2007
EXTT0=
EXTT1=
EXTT2=
EXTT3=
EXTT4=
EXTT5=
EXTT6=
EXTT7=
EXTT8=
EXTT9=
PLAYORDER=
